<?xml version="1.0" encoding="iso-8859-1"?>
<!-- Generator: Adobe Illustrator 18.0.0, SVG Export Plug-In . SVG Version: 6.00 Build 0)  -->
<!DOCTYPE svg PUBLIC "-//W3C//DTD SVG 1.1//EN" "http://www.w3.org/Graphics/SVG/1.1/DTD/svg11.dtd">
<svg version="1.1" id="Capa_1" xmlns="http://www.w3.org/2000/svg" xmlns:xlink="http://www.w3.org/1999/xlink" x="0px" y="0px"
	 viewBox="0 0 57.301 57.301" style="enable-background:new 0 0 57.301 57.301;" xml:space="preserve">
<g>
	<path style="fill:#1D1D1B;" d="M55.23,5.008C54.002,17.1,43.599,28.575,35.381,36.855c-7.877,7.936-18.158,17.172-29.311,19.906
		c-0.037-0.127-0.16-0.237-0.328-0.211c-5.878,0.923-3.134-10.409-1.691-14.216c1.331,2.23,3.173,4.689,3.129,7.321
		c-0.006,0.362,0.552,0.362,0.563,0c0.072-2.584-1.573-4.881-3.007-6.994c0.378-1.136,0.788-2.252,1.371-3.302
		c0.483-0.87,1.156-1.625,1.648-2.48c1.668,4.036,1.633,8.307,0.044,12.433c-0.059,0.153,0.196,0.262,0.267,0.112
		c2.045-4.312,1.946-9.071-0.026-13.358c0.022-0.041,0.032-0.086-0.003-0.131c-0.253-0.329-0.318-0.643-0.273-1.021
		c1.409-2.879,3.264-5.209,5.19-7.711c0.056,0.102,0.105,0.205,0.16,0.307c-0.01,0.038-0.026,0.076-0.035,0.115
		c-0.031,0.12,0.085,0.182,0.174,0.15c1.85,3.519,3.049,7.141,3.458,11.141c0.027,0.266,0.417,0.448,0.561,0.152
		c2.555-5.271,2.603-11.024,0.149-16.329c0.039-0.06,0.053-0.138-0.011-0.209c-0.82-0.92,2.032-3.768,2.552-4.377
		c0.988-1.157,2.06-2.219,3.154-3.275c0.007-0.007,0.009-0.014,0.015-0.021c2.26,4.301,3.676,8.739,4.005,13.612
		c0.021,0.306,0.405,0.42,0.576,0.156c3.217-4.957,1.96-10.772-0.687-15.69c-0.009-0.016-0.021-0.024-0.031-0.037
		c2.063-1.863,4.33-3.47,6.722-4.882c1.282,2.45,2.064,4.898,2.301,7.665c0.018,0.206,0.249,0.401,0.452,0.259
		c3.497-2.448,4.096-6.81,3.924-10.808c0.076,0.058,0.171,0.09,0.266,0.032c2.04-1.246,4.018-2.478,6.263-3.343
		c2.46-0.948,9.569-2.677,8.322,2.715c-0.038,0.163,0.213,0.291,0.286,0.121c0.937-2.199-0.711-4.125-2.91-4.54
		c-3.968-0.75-9.277,2.261-12.245,4.628c-0.001-0.018-0.001-0.036-0.002-0.053c-0.019-0.339-0.51-0.34-0.527,0
		c-0.197,3.794-0.103,7.862-3.294,10.428c-0.287-2.417-1.018-4.701-2.259-6.788c1.882-0.018,3.855-0.768,5.393-1.812
		c0.172-0.117,0.025-0.353-0.16-0.273c-1.779,0.771-3.548,1.271-5.378,1.849c-0.083-0.135-0.161-0.272-0.249-0.405
		c-0.002-0.003-0.005-0.002-0.006-0.004c-0.041-0.167-0.222-0.305-0.42-0.197c-2.559,1.39-4.805,3.155-6.836,5.235
		c-0.052,0.053-0.054,0.11-0.04,0.164c-0.068,0.069-0.093,0.171-0.063,0.28c-1.146,0.389-2.083,1.086-2.787,2.071
		c-0.022,0.03-0.017,0.058-0.018,0.086c-0.189-0.305-0.375-0.611-0.574-0.911c-0.059-0.088-0.173-0.053-0.2,0.023
		c-0.071-0.01-0.147,0.006-0.215,0.064c-1.719,1.458-3.238,3.152-4.556,4.98c-0.504,0.699-1.763,2.056-1.237,3.011
		c-0.119,0.082-0.196,0.236-0.117,0.402c1.195,2.528,1.867,5.129,1.854,7.944c-0.002,0.393-0.607,7.065-1.484,6.974
		c0.125,0.013-1.282-5.443-1.395-5.75c-0.612-1.655-1.398-3.218-2.328-4.712c0.681-1.649,1.829-2.774,3.22-3.892
		c0.114-0.092-0.01-0.311-0.147-0.253c-1.586,0.667-2.716,2.201-3.279,3.808c-0.026-0.04-0.048-0.081-0.074-0.12
		c0.051-0.067,0.102-0.132,0.153-0.199c0.164-0.214-0.168-0.408-0.345-0.266c-2.612,2.089-4.502,5.427-5.744,8.474
		c-0.046,0.113,0.024,0.207,0.118,0.254c0.01,0.096,0.021,0.191,0.048,0.284c-0.121,0.076-0.201,0.229-0.12,0.394
		c0.125,0.254,0.22,0.512,0.331,0.768c-1.627,1.234-2.677,3.713-3.145,5.694c-0.088-0.132-0.18-0.265-0.265-0.396
		c0.076-0.181,0.147-0.34,0.209-0.461c0.152-0.295-0.272-0.547-0.446-0.261c-1.748,2.872-5.304,16.92,1.421,15.976
		c0.034,0.089,0.118,0.164,0.238,0.145c6.369-1.008,11.853-4.944,16.966-8.665c5.141-3.742,9.965-7.925,14.378-12.504
		c7.915-8.212,17.875-19.275,18.836-31.122C55.859,4.622,55.269,4.63,55.23,5.008z M24.042,15.413c0.665-0.861,1.57-1.503,2.6-1.852
		c0.02-0.007,0.024-0.025,0.04-0.036c1.228,2.593,2.374,5.313,2.392,8.237c0.008,1.314-0.154,2.679-0.56,3.932
		c-1.177,3.63-0.602,1.501-0.949,0.624c-0.75-1.896-0.765-4.233-1.483-6.209c-0.594-1.635-1.366-3.171-2.268-4.647
		C23.886,15.495,23.98,15.492,24.042,15.413z"/>
</g>
<g>
</g>
<g>
</g>
<g>
</g>
<g>
</g>
<g>
</g>
<g>
</g>
<g>
</g>
<g>
</g>
<g>
</g>
<g>
</g>
<g>
</g>
<g>
</g>
<g>
</g>
<g>
</g>
<g>
</g>
</svg>
