<?xml version="1.0" encoding="iso-8859-1"?>
<!-- Generator: Adobe Illustrator 17.1.0, SVG Export Plug-In . SVG Version: 6.00 Build 0)  -->
<!DOCTYPE svg PUBLIC "-//W3C//DTD SVG 1.1//EN" "http://www.w3.org/Graphics/SVG/1.1/DTD/svg11.dtd">
<svg version="1.1" id="Capa_1" xmlns="http://www.w3.org/2000/svg" xmlns:xlink="http://www.w3.org/1999/xlink" x="0px" y="0px"
	 viewBox="0 0 194.799 194.799" style="enable-background:new 0 0 194.799 194.799;" xml:space="preserve">
<path d="M112.209,194.799h-29.62c-1.104,0-2-0.896-2-2s0.896-2,2-2h29.62c1.104,0,2,0.896,2,2S113.314,194.799,112.209,194.799z
	 M110.476,187.966H84.322c-6.395,0-11.913-3.823-14.39-9.304c-0.015-0.03-0.029-0.062-0.042-0.094
	c-0.867-1.953-1.349-4.112-1.349-6.384v-15.219c0-7.179-3.733-13.724-9.985-17.506c-23.048-13.941-36.949-39.319-36.279-66.231
	c0.479-19.261,8.324-37.438,22.088-51.185C58.129,8.297,76.317,0.476,95.579,0.021c20.476-0.469,39.722,7.103,54.32,21.359
	c14.604,14.262,22.646,33.355,22.646,53.764c0,26.565-13.605,50.63-36.394,64.372c0,0,0,0-0.001,0
	c-6.102,3.68-9.893,10.365-9.893,17.447v15.222c0,2.279-0.485,4.447-1.359,6.406c-0.007,0.017-0.015,0.033-0.021,0.049
	C122.404,184.133,116.879,187.966,110.476,187.966z M75.339,179.799c2.163,2.548,5.387,4.167,8.983,4.167h26.154
	c3.596,0,6.82-1.619,8.983-4.167H75.339z M73.108,175.799h48.582c0.368-1.14,0.567-2.354,0.567-3.614v-3.052H72.541v3.052
	C72.541,173.444,72.741,174.659,73.108,175.799z M72.541,165.133h49.716v-6.667H72.541V165.133z M72.414,154.466h49.974
	c0.792-7.525,5.123-14.412,11.696-18.376l0,0c21.578-13.012,34.46-35.795,34.46-60.946c0-19.322-7.614-37.399-21.44-50.902
	c-13.821-13.497-32.067-20.686-51.43-20.223c-37.969,0.898-68.452,31.343-69.397,69.31c-0.635,25.48,12.527,49.509,34.35,62.71
	C67.356,140.108,71.64,146.874,72.414,154.466z M97.107,135.512c-0.903,0-1.713-0.614-1.938-1.514c0-0.001,0-0.001,0-0.001
	c0-0.001,0-0.002,0-0.003c-0.009-0.035-0.017-0.07-0.023-0.105c-0.093-0.478-0.87-4.489-1.761-10.308
	c-1.083-4.126-2.827-8.92-5.617-13.154c-3.134-4.759-6.399-7.651-7.67-8.685c-4.138,1.625-20.76,6.904-33.459-7.27l0,0
	c-14.773-16.49-2.739-44.635-2.22-45.824c0.292-0.67,0.926-1.126,1.653-1.191c0.732-0.066,1.433,0.27,1.84,0.877
	c0.054,0.08,5.442,8.03,11.124,10.517c1.089,0.477,2.435,0.979,3.859,1.512c7.015,2.621,16.622,6.211,20.747,15.114
	c3.992,8.62,0.649,19.17-0.935,23.229c1.564,1.276,5.041,4.418,8.402,9.521c0.129,0.196,0.256,0.394,0.382,0.591
	c-0.819-8.093-1.296-16.835-0.726-24.078c1.42-18.046,4.109-36.414,19.668-45.369c6.766-3.893,13.805-3.935,19.315-0.114
	c5.078,3.521,7.992,9.811,7.086,15.296c-0.838,5.069-4.3,9.256-9.034,10.926c-4.23,1.494-8.651,0.691-11.824-2.142
	c-4.34-3.876-4.25-7.899-3.81-9.953c0.597-2.783,2.506-5.131,4.749-5.841c1.053-0.333,2.177,0.25,2.511,1.304
	c0.333,1.054-0.251,2.177-1.304,2.511c-0.638,0.201-1.692,1.224-2.045,2.865c-0.445,2.079,0.464,4.257,2.563,6.13
	c2.069,1.848,4.994,2.353,7.83,1.354c3.358-1.186,5.817-4.176,6.417-7.807c0.653-3.951-1.625-8.728-5.418-11.356
	c-4.249-2.946-9.591-2.842-15.041,0.294C98.542,50.827,96.142,67.365,94.75,85.053c-0.905,11.502,1.005,27.386,2.568,37.694
	c0.065,0.253,0.129,0.503,0.19,0.751c0.618-1.581,1.388-3.183,2.344-4.659c3.007-4.645,7.481-7.614,9.555-8.82
	c-0.03-2.84,0.334-11.972,5.944-17.27c5.475-5.171,13.57-4.983,18.923-4.868c1.129,0.026,2.193,0.049,3.068,0.021
	c3.729-0.12,8.737-3.014,10.353-4.118c0.602-0.414,1.383-0.466,2.034-0.133c0.651,0.33,1.07,0.99,1.094,1.721
	c0.031,0.981,0.582,24.135-14.514,31.615c-11.786,5.84-21.335-0.527-24.877-3.516c-1.725,1.007-5.672,3.603-8.223,7.541
	c-3.265,5.043-4.051,12.114-4.106,12.652c-0.012,0.162-0.044,0.319-0.094,0.47c-0.072,0.222-0.182,0.425-0.321,0.604
	c-0.286,0.369-0.701,0.64-1.195,0.736C97.364,135.5,97.234,135.512,97.107,135.512z M114.497,110.859
	c3.154,2.569,10.68,7.178,20.036,2.544c9.618-4.767,11.725-18.032,12.176-24.404c-2.48,1.299-6.009,2.798-9.238,2.901
	c-0.982,0.032-2.103,0.007-3.287-0.021c-4.98-0.108-11.807-0.266-16.087,3.777c-3.058,2.888-4.137,7.533-4.505,10.885
	c2.576-1.864,6.36-4.343,10.581-6.255c7.616-3.454,13.205-4.167,13.439-4.196c1.103-0.125,2.094,0.646,2.229,1.742
	c0.134,1.096-0.645,2.093-1.74,2.229c-0.097,0.012-5.291,0.7-12.276,3.868C121.057,106.091,116.787,109.109,114.497,110.859z
	 M49.616,91.803c9.075,10.131,20.462,8.754,26.14,7.187c-4.615-3.145-12.806-9.003-16.977-13.654
	c-6.039-6.736-7.887-10.96-9.145-14.391c-0.38-1.037,0.152-2.186,1.189-2.566c1.033-0.379,2.185,0.151,2.566,1.189
	c1.13,3.081,2.801,6.889,8.368,13.098c4.244,4.733,13.413,11.113,17.487,13.851c1.443-3.974,3.879-12.634,0.765-19.357
	c-3.434-7.412-12.151-10.671-18.517-13.05c-1.477-0.552-2.872-1.073-4.062-1.594c-4.303-1.883-8.233-6.066-10.585-8.951
	C44.253,61.209,39.305,80.294,49.616,91.803L49.616,91.803z"/>
<g>
</g>
<g>
</g>
<g>
</g>
<g>
</g>
<g>
</g>
<g>
</g>
<g>
</g>
<g>
</g>
<g>
</g>
<g>
</g>
<g>
</g>
<g>
</g>
<g>
</g>
<g>
</g>
<g>
</g>
</svg>
