<?xml version="1.0" encoding="iso-8859-1"?>
<!-- Generator: Adobe Illustrator 17.1.0, SVG Export Plug-In . SVG Version: 6.00 Build 0)  -->
<!DOCTYPE svg PUBLIC "-//W3C//DTD SVG 1.1//EN" "http://www.w3.org/Graphics/SVG/1.1/DTD/svg11.dtd">
<svg version="1.1" id="Capa_1" xmlns="http://www.w3.org/2000/svg" xmlns:xlink="http://www.w3.org/1999/xlink" x="0px" y="0px"
	 viewBox="0 0 470 470" style="enable-background:new 0 0 470 470;" xml:space="preserve">
<g>
	<path d="M401.17,68.83C356.785,24.444,297.771,0,235,0S113.215,24.444,68.83,68.83C24.444,113.215,0,172.229,0,235
		s24.444,121.785,68.83,166.17C113.215,445.556,172.229,470,235,470s121.785-24.444,166.17-68.83
		C445.556,356.785,470,297.771,470,235S445.556,113.215,401.17,68.83z M235,455c-121.309,0-220-98.691-220-220S113.691,15,235,15
		s220,98.691,220,220S356.309,455,235,455z"/>
	<path d="M289.872,49.924c35.917,10.647,67.812,31.462,92.235,60.196c1.483,1.745,3.594,2.643,5.718,2.643
		c1.717,0,3.443-0.586,4.854-1.785c3.156-2.683,3.54-7.416,0.857-10.572c-26.313-30.957-60.685-53.386-99.401-64.863
		c-3.971-1.176-8.145,1.088-9.322,5.06C283.635,44.573,285.9,48.747,289.872,49.924z"/>
	<path d="M392.676,359.025c-3.155-2.683-7.89-2.299-10.572,0.857c-24.423,28.731-56.316,49.546-92.233,60.193
		c-3.971,1.178-6.236,5.351-5.059,9.323c0.967,3.26,3.952,5.37,7.188,5.37c0.706,0,1.423-0.101,2.135-0.311
		c38.714-11.477,73.086-33.905,99.398-64.86C396.216,366.441,395.833,361.708,392.676,359.025z"/>
	<path d="M316.5,224.621v-4.758c0-4.142-3.358-7.5-7.5-7.5s-7.5,3.358-7.5,7.5v4.758c0,4.142,3.358,7.5,7.5,7.5
		S316.5,228.763,316.5,224.621z"/>
	<path d="M270.5,252.146c9.925,0,18-8.075,18-18v-24.489c0-9.925-8.075-18-18-18s-18,8.075-18,18v34.989c0,4.142,3.358,7.5,7.5,7.5
		H270.5z M267.5,209.656c0-1.654,1.346-3,3-3s3,1.346,3,3v24.489c0,1.654-1.346,3-3,3h-3V209.656z"/>
	<path d="M232.5,228.621c0,4.142,3.358,7.5,7.5,7.5s7.5-3.358,7.5-7.5v-18.965c0-4.142-3.358-7.5-7.5-7.5s-7.5,3.358-7.5,7.5
		V228.621z"/>
	<path d="M416,235c0-99.804-81.196-181-181-181c-32.079,0-63.618,8.544-91.208,24.708c-26.76,15.678-49.213,38.099-64.933,64.84
		c-2.1,3.571-0.906,8.167,2.665,10.266c3.57,2.1,8.167,0.906,10.267-2.665C121.577,100.478,176.453,69,235,69
		c54.772,0,103.425,26.67,133.677,67.699l-50.489,11.05c-8.236,1.803-14.688,9.82-14.688,18.251v14.305
		c0,4.642,1.961,8.882,5.38,11.634c1.04,0.837,2.194,1.491,3.412,1.998V200c0,4.142,3.358,7.5,7.5,7.5s7.5-3.358,7.5-7.5v-6.583
		L362,185.821v23.217l-25.441,4.31c-4.083,0.692-6.833,4.563-6.142,8.647c0.62,3.66,3.793,6.248,7.386,6.248
		c0.416,0,0.838-0.035,1.261-0.106l4.175-0.707v6.085l-35.73,6.053c-12.902,2.185-23.009,14.148-23.009,27.234v13.449h-47
		c-4.142,0-7.5,3.358-7.5,7.5v20.907c0,19.161,15.589,34.75,34.75,34.75c13.87,0,26.178-8.181,31.701-20.487h17.418v11.465
		c0,4.142,3.358,7.5,7.5,7.5s7.5-3.358,7.5-7.5V322.92h46.872C346.365,369.775,294.265,401,235,401
		c-42.885,0-82.023-16.347-111.512-43.136h9.793c0.033,0,50.153,0,50.153,0c0.067,0,27.778,0,27.778,0c4.142,0,7.5-3.358,7.5-7.5
		s-3.358-7.5-7.5-7.5h-18.856l40.989-239.039c0.457-2.661-0.553-5.362-2.643-7.072s-4.937-2.164-7.456-1.19l-77.543,30.004
		c-3.863,1.495-5.783,5.838-4.288,9.701c1.495,3.863,5.839,5.782,9.701,4.288l10.719-4.148L126.94,342.864h-18.013
		C84.051,313.83,69,276.142,69,235c0-19.909,3.513-39.404,10.441-57.942c1.45-3.88-0.52-8.201-4.4-9.651
		c-3.878-1.45-8.2,0.52-9.651,4.4C57.833,192.03,54,213.292,54,235c0,99.804,81.196,181,181,181S416,334.804,416,235z
		 M291.154,307.92c-3.427,0-6.418,2.323-7.267,5.644c-2.232,8.739-10.102,14.843-19.137,14.843c-10.89,0-19.75-8.86-19.75-19.75
		V295.25h47c4.142,0,7.5-3.358,7.5-7.5v-20.949c0-5.681,4.913-11.496,10.514-12.445l41.978-7.111
		c3.607-0.611,6.248-3.736,6.248-7.395v-14.963l12.514-2.12c3.607-0.611,6.247-3.736,6.247-7.395v-38.872
		c0-2.271-1.029-4.419-2.798-5.843c-1.769-1.423-4.086-1.968-6.306-1.484L318.5,179.986V166c0-1.413,1.516-3.295,2.896-3.598
		l56.198-12.299C392.449,174.959,401,203.998,401,235c0,26.147-6.085,50.896-16.9,72.92H291.154z M178.104,129.114l38.221-14.789
		l-39.189,228.54h-34.985L178.104,129.114z"/>
</g>
<g>
</g>
<g>
</g>
<g>
</g>
<g>
</g>
<g>
</g>
<g>
</g>
<g>
</g>
<g>
</g>
<g>
</g>
<g>
</g>
<g>
</g>
<g>
</g>
<g>
</g>
<g>
</g>
<g>
</g>
</svg>
