<?xml version="1.0" encoding="iso-8859-1"?>
<!-- Generator: Adobe Illustrator 17.1.0, SVG Export Plug-In . SVG Version: 6.00 Build 0)  -->
<!DOCTYPE svg PUBLIC "-//W3C//DTD SVG 1.1//EN" "http://www.w3.org/Graphics/SVG/1.1/DTD/svg11.dtd">
<svg version="1.1" id="Capa_1" xmlns="http://www.w3.org/2000/svg" xmlns:xlink="http://www.w3.org/1999/xlink" x="0px" y="0px"
	 viewBox="0 0 511 511" style="enable-background:new 0 0 511 511;" xml:space="preserve">
<g>
	<path d="M343.5,496H335v-80.5c0-4.142-3.358-7.5-7.5-7.5h-8.721l-8.885-297h1.606c4.142,0,7.5-3.358,7.5-7.5v-32
		c0-4.142-3.358-7.5-7.5-7.5H287V31.5C287,14.131,272.869,0,255.5,0S224,14.131,224,31.5V64h-24.5c-4.142,0-7.5,3.358-7.5,7.5v32
		c0,4.142,3.358,7.5,7.5,7.5h0.305l-7.615,297h-8.69c-4.142,0-7.5,3.358-7.5,7.5V496h-8.5c-4.142,0-7.5,3.358-7.5,7.5
		s3.358,7.5,7.5,7.5h176c4.142,0,7.5-3.358,7.5-7.5S347.642,496,343.5,496z M320,496h-25v-73h25V496z M280,423v73h-49v-73H280z
		 M255.5,15c6.396,0,11.942,3.666,14.679,9h-29.357C243.558,18.666,249.104,15,255.5,15z M239,39h33v25h-9v-8.5
		c0-4.142-3.358-7.5-7.5-7.5s-7.5,3.358-7.5,7.5V64h-9V39z M207,79h97v17h-97V79z M214.81,111H224v0.5c0,4.142,3.358,7.5,7.5,7.5
		s7.5-3.358,7.5-7.5V111h9v0.5c0,4.142,3.358,7.5,7.5,7.5s7.5-3.358,7.5-7.5V111h9v0.5c0,4.142,3.358,7.5,7.5,7.5s7.5-3.358,7.5-7.5
		V111h7.888l8.885,297h-96.578L214.81,111z M191,423h25v73h-25V423z"/>
	<path d="M255.5,375c4.142,0,7.5-3.358,7.5-7.5v-8c0-4.142-3.358-7.5-7.5-7.5s-7.5,3.358-7.5,7.5v8
		C248,371.642,251.358,375,255.5,375z"/>
	<path d="M255.5,311c4.142,0,7.5-3.358,7.5-7.5v-8c0-4.142-3.358-7.5-7.5-7.5s-7.5,3.358-7.5,7.5v8
		C248,307.642,251.358,311,255.5,311z"/>
	<path d="M255.5,247c4.142,0,7.5-3.358,7.5-7.5v-8c0-4.142-3.358-7.5-7.5-7.5s-7.5,3.358-7.5,7.5v8
		C248,243.642,251.358,247,255.5,247z"/>
	<path d="M255.5,183c4.142,0,7.5-3.358,7.5-7.5v-8c0-4.142-3.358-7.5-7.5-7.5s-7.5,3.358-7.5,7.5v8
		C248,179.642,251.358,183,255.5,183z"/>
</g>
<g>
</g>
<g>
</g>
<g>
</g>
<g>
</g>
<g>
</g>
<g>
</g>
<g>
</g>
<g>
</g>
<g>
</g>
<g>
</g>
<g>
</g>
<g>
</g>
<g>
</g>
<g>
</g>
<g>
</g>
</svg>
